<?xml version="1.0" encoding="iso-8859-1"?>
<!-- Generator: Adobe Illustrator 19.0.0, SVG Export Plug-In . SVG Version: 6.00 Build 0)  -->
<svg version="1.1" id="Layer_1" xmlns="http://www.w3.org/2000/svg" xmlns:xlink="http://www.w3.org/1999/xlink" x="0px" y="0px"
	 viewBox="0 0 512 512" style="enable-background:new 0 0 512 512;" xml:space="preserve">
<path style="fill:#F7B239;" d="M305.29,78.348l-18.302-7.783c-8.268-3.506-12.639-11.775-10.484-19.759l5.556-20.493
	c1.955-7.214,0.19-14.914-4.691-20.552C271.731,3.246,263.866,0,256,0c-7.866,0-15.731,3.246-21.37,9.761
	c-3.577,4.122-5.485,9.358-5.485,14.689c0,1.955,0.261,3.921,0.782,5.864l5.556,20.493c2.168,7.984-2.215,16.252-10.472,19.759
	l-18.302,7.783c-6.089,2.582-9.714,8.339-9.062,14.369l7.202,66.716l13.03,2.144l-3.4,52.749
	c-0.877,13.611,2.488,27.174,9.69,39.162l4.371,7.25l-5.212,24.142c-2.026,9.394-1.765,19.06,0.77,28.347l10.341,37.918
	c1.528,5.591,0.391,11.49-3.139,16.3l-11.052,15.044H256h35.739l-11.052-15.044c-3.518-4.809-4.655-10.709-3.139-16.3l10.353-37.918
	c2.535-9.287,2.796-18.953,0.77-28.347l-5.224-24.142l4.371-7.25c7.214-11.988,10.566-25.551,9.69-39.162l-3.4-52.749l13.03-2.144
	l7.214-66.716C315.004,86.688,311.379,80.931,305.29,78.348z"/>
<path style="fill:#E09B2D;" d="M256,0c-3.246,0-6.492,3.246-8.813,9.761c-1.481,4.122-2.263,9.358-2.263,14.689
	c0,1.955,0.107,3.921,0.32,5.864l2.286,20.493c0.9,7.984-0.912,16.252-4.312,19.759l-7.558,7.783
	c-2.511,2.582-4.004,8.339-3.731,14.369l2.973,46.175h8.162l-4.193,75.434c-0.367,13.611,1.031,27.174,3.992,39.162l1.812,7.25
	l-2.156,24.142c-0.829,9.394-0.723,19.06,0.32,28.347l4.264,37.918c0.628,5.591,0.166,11.49-1.291,16.3l-4.561,15.044h-21.003
	l11.052-15.044c3.53-4.809,4.667-10.709,3.139-16.3l-10.341-37.918c-2.535-9.287-2.796-18.953-0.77-28.347l5.212-24.142l-4.371-7.25
	c-7.202-11.988-10.566-25.551-9.69-39.162l3.4-52.749l-13.03-2.144l-7.202-66.716c-0.652-6.03,2.973-11.787,9.062-14.369
	l18.302-7.783c8.257-3.506,12.639-11.775,10.472-19.759l-5.556-20.493c-0.521-1.943-0.782-3.909-0.782-5.864
	c0-5.331,1.907-10.566,5.485-14.689C240.269,3.246,248.134,0,256,0z"/>
<polygon style="fill:#808080;" points="313.914,381.305 313.914,416.973 198.086,416.973 198.086,381.305 220.249,381.305 
	256,381.305 291.739,381.305 "/>
<polygon style="fill:#B3B3B3;" points="329.515,415.788 329.515,512 182.485,512 182.485,415.788 198.086,415.788 313.914,415.788 
	"/>
<g>
</g>
<g>
</g>
<g>
</g>
<g>
</g>
<g>
</g>
<g>
</g>
<g>
</g>
<g>
</g>
<g>
</g>
<g>
</g>
<g>
</g>
<g>
</g>
<g>
</g>
<g>
</g>
<g>
</g>
</svg>
